<?xml version="1.0" encoding="utf-8"?>
<!-- Generator: Adobe Illustrator 16.0.3, SVG Export Plug-In . SVG Version: 6.00 Build 0)  -->
<!DOCTYPE svg PUBLIC "-//W3C//DTD SVG 1.1//EN" "http://www.w3.org/Graphics/SVG/1.1/DTD/svg11.dtd">
<svg version="1.1" xmlns="http://www.w3.org/2000/svg" xmlns:xlink="http://www.w3.org/1999/xlink" x="0px" y="0px"
	 width="283.46px" height="283.46px" viewBox="0 0 283.46 283.46" enable-background="new 0 0 283.46 283.46" xml:space="preserve">
<g id="Base">
	<path fill="#95C11F" stroke="#FFFFFF" stroke-width="4" stroke-miterlimit="10" d="M278.46,141.135
		c0,75.686-61.354,137.045-137.046,137.045c-75.688,0-137.045-61.359-137.045-137.045C4.369,65.446,65.726,4.09,141.414,4.09
		C217.105,4.09,278.46,65.446,278.46,141.135z"/>
	<line fill="none" x1="0" y1="0" x2="4.009" y2="4.009"/>
	<line fill="none" x1="283.46" y1="283.46" x2="279.451" y2="279.451"/>
	<g>
		<path fill="none" d="M79.521,21.836c-1.474,0-2.361,1.082-2.361,2.303v0.03c0,1.249,0.984,2.148,2.417,2.148
			c1.503,0,2.445-1.095,2.445-2.219V24.07C82.022,22.82,80.997,21.836,79.521,21.836z"/>
		<polygon fill="#88B01D" points="58.436,134.226 58.534,134.226 126.75,36.807 77.933,106.42 76.636,108.269 		"/>
		<g>
			<polygon fill="#FFFFFF" points="157.255,245.979 157.255,37.153 171.242,37.153 171.242,134.726 242.178,134.726 
				242.178,147.786 171.242,147.786 171.242,245.979 			"/>
			<path fill="#FFFFFF" d="M170.742,37.653v73.736v2.259v20.577v1h1H192h2.259h47.419v12.06h-69.936h-1v1v97.192h-12.987V37.653
				H170.742 M171.742,36.653h-0.322h-14.665v209.825h14.987v-98.192h70.936v-14.06h-48.419H192h-20.258v-20.577v-2.259V36.653
				L171.742,36.653z"/>
		</g>
		<g>
			<path fill="#FFFFFF" d="M112.19,246.135V81.756l-46.213,66.03H4.645c-0.098-2.178-0.145-4.217-0.145-6.218
				c0-2.215,0.059-4.514,0.174-6.842h54.022l0.248-0.213l67.306-96.12v207.742H112.19z"/>
			<g>
				<path fill="#FFFFFF" d="M125.75,39.979v205.656h-13.06V83.343V80.17l-1.819,2.6l-45.154,64.517H5.124
					C5.041,145.294,5,143.415,5,141.568c0-2.056,0.051-4.185,0.15-6.342h20.157h2.26h30.868h0.099h0.521l0.299-0.426L125.75,39.979
					 M126.75,36.807l-68.216,97.419h-0.099H27.567h-2.26H4.199C4.07,136.659,4,139.105,4,141.568c0,2.253,0.062,4.494,0.167,6.718
					h62.07l45.453-64.943v163.292h15.06V36.807L126.75,36.807z"/>
			</g>
		</g>
	</g>
	<path fill="#88B01D" d="M171.574,148.215v98.192h-14.986v31.702c33.875-3.746,64.041-19.789,85.922-43.587v-86.308H171.574z"/>
	<path fill="#88B01D" d="M111.523,246.563V83.271L66.07,148.215H4c3.271,67.887,55.772,122.847,122.583,129.966v-31.617H111.523z"/>
	<path fill="none" stroke="#FFFFFF" stroke-width="4" stroke-miterlimit="10" d="M278.294,141.135
		c0,75.686-61.354,137.045-137.046,137.045c-75.688,0-137.045-61.359-137.045-137.045C4.203,65.446,65.56,4.09,141.248,4.09
		C216.939,4.09,278.294,65.446,278.294,141.135z"/>
</g>
<g id="Layer_2">
</g>
</svg>
