<?xml version="1.0" standalone="no"?>
<!DOCTYPE svg PUBLIC "-//W3C//DTD SVG 20010904//EN"
 "http://www.w3.org/TR/2001/REC-SVG-20010904/DTD/svg10.dtd">
<svg version="1.0" xmlns="http://www.w3.org/2000/svg"
 width="700.000000pt" height="700.000000pt" viewBox="0 0 700.000000 700.000000"
 preserveAspectRatio="xMidYMid meet">
<metadata>
Created by potrace 1.11, written by Peter Selinger 2001-2013
</metadata>
<g transform="translate(0.000000,700.000000) scale(0.100000,-0.100000)"
fill="#000000" stroke="none">
<path d="M3287 6839 c-1010 -60 -1939 -580 -2521 -1408 -220 -314 -387 -667
-485 -1026 -58 -212 -90 -395 -115 -662 l-5 -53 644 0 643 0 841 1201 841
1202 0 -2592 0 -2591 -185 0 -185 0 -2 2017 -3 2018 -560 -800 -561 -800 -737
-3 -737 -2 0 -24 c0 -51 21 -237 41 -354 244 -1476 1463 -2618 2949 -2763 159
-15 519 -16 675 0 746 73 1438 395 1979 921 658 639 1016 1484 1016 2395 0
666 -187 1284 -556 1841 -526 796 -1368 1326 -2316 1459 -108 15 -411 36 -488
33 -25 0 -102 -4 -173 -9z m953 -1944 l0 -1205 875 0 875 0 0 -175 0 -175
-875 0 -875 0 0 -1210 0 -1210 -185 0 -185 0 0 2590 0 2590 185 0 185 0 0
-1205z"/>
</g>
</svg>
